<?xml version="1.0" standalone="no"?><!DOCTYPE svg PUBLIC "-//W3C//DTD SVG 1.1//EN" "http://www.w3.org/Graphics/SVG/1.1/DTD/svg11.dtd"><svg t="1728059759253" class="icon" viewBox="0 0 1024 1024" version="1.1" xmlns="http://www.w3.org/2000/svg" p-id="4658" width="256" height="256" xmlns:xlink="http://www.w3.org/1999/xlink"><path d="M829.56849816 761.45785156c9.01164551-19.37988281 13.17832031-46.51171875 13.17832031-84.08931152 0-134.22506836-61.84120605-211.66708008-111.5118457-273.89588379-30.07757812-37.69387207-53.85669434-67.46137207-53.85669434-98.19786621v-9.68994141c0.31007812-57.054375 0.98837402-175.85305664-62.015625-239.28341308C588.59903527 29.44091797 553.85090538 15.875 511.99035851 15.875c-86.84125488 0-144.69020508 42.19000488-144.69020508 248.0625 0 56.66677734-23.85663574 103.08159668-49.08924316 152.20959961-11.0465332 21.55042969-22.50004395 43.83729492-32.09308594 67.38385254C267.02863976 530.4884082 222.59056847 645.41111328 222.59056847 698.046875a20.73647461 20.73647461 0 0 0 2.3643457 9.68994141l146.31811524 279.0703125a20.73647461 20.73647461 0 0 0 15.87212402 10.75583496 20.73647461 20.73647461 0 0 0 18.06205078-6.84109864c9.18606445-10.23257812 70.07765625-23.79849609 106.7831543-23.79849609h140.25221191a20.73647461 20.73647461 0 0 0 14.41863282-5.81396484l169.82591308-165.38791993a20.67833496 20.67833496 0 0 0-6.91861816-34.08921386z" fill="#1A1A1A" p-id="4659"></path><path d="M682.72712609 710.93449707c-0.50387695-100.65911133-14.18607422-213.87638672-93.72111328-376.47360352C549.64547081 361.08885254 477.39726769 382.15478516 468.71508019 382.15478516c-15.65894531 0-49.82567871-11.18219238-74.94200684-33.33339844-10.31009766 30.4457959-24.59307129 58.64352539-38.75976562 86.24047851-10.65893555 20.73647461-21.66670898 42.19000488-30.5620752 64.06989258C299.4511837 560.44970703 270.90461632 641.32195801 265.22631066 684.26777832c17.44189453 11.62792969 29.68998047 36.82177734 43.15899902 65.0582666 13.95351563 29.18610352 29.74812012 62.26756348 50.11637695 76.47301758 37.28689453 25.94966309 56.6086377 62.96523926 61.66678711 96.58933594 14.18607422 1.41473145 32.07370605 2.63566406 52.3256836 2.63566406 50.38769531 0 118.79868164-10.23257812 169.39955566-40.9303125 2.81008301-54.6900293 12.42250488-142.40337891 40.83341309-173.15925293z" fill="#FFFFFF" p-id="4660"></path><path d="M881.04146691 804.48119141c-8.5659082-5.62016602-17.44189453-11.43413086-23.6822168-17.69383301-3.64341797-3.64341797-1.93798828-20.54267578-1.08527344-29.63184082 1.70542969-17.44189453 3.48837891-35.44580566-8.23645019-48.44970703-4.41861328-4.88373047-12.53878418-10.7170752-25.96904297-10.7170752-11.0465332 0-19.12794434 8.75970703-19.61244141 19.80624024 0 0.29069824 0.1162793 0.5620166 0.1162793 0.87209472H718.71556847A20.65895508 20.65895508 0 0 0 698.03723351 698.046875c-61.29856934 0-62.015625 225.11671875-62.24818359 230.03920898-1.16279297 12.32560547-3.87597656 41.25977051 14.6511914 61.5698877 11.1628125 12.24808594 27.13183594 18.46902832 47.59699219 18.46902832 53.66289551 0 79.69007812-27.65509277 104.84516602-54.37995117 4.22481445-4.53489258 8.5659082-9.1279248 13.13956054-13.68219727 10.46513672-10.4845166 31.0078125-17.96515137 49.0504834-24.55431152 29.67060059-10.85273438 60.36833496-22.05430664 60.36833496-52.093125s-24.55431152-45.96908203-44.39931152-58.93422363zM358.4241671 825.7990625c-20.36825684-14.2054541-36.16286133-47.28691406-50.11637695-76.47301758-18.44964844-38.60472656-34.39929199-71.95750488-65.03888672-71.95750488-38.75976563 0-47.15125488 34.76750977-51.66676758 53.4497168-1.25969238 5.13566895-3.13954102 12.88762207-3.33333984 13.79847656-3.06202148 1.93798828-14.61243164 4.18605469-22.24810547 5.69768555C140.78808312 755.31442871 98.55931847 763.6671582 98.55931847 801.39979004a157.44216797 157.44216797 0 0 0 3.43023926 30.01943848C105.18723839 848.62856445 108.24925988 864.84952637 99.21823449 899.59765625a20.15507813 20.15507813 0 0 0-0.65891602 5.17442871c0 49.69001953 77.19007324 56.20166016 123.33357422 59.96135742 7.75195313 0.65891602 14.05041504 1.14341309 18.13957031 1.78294922 6.35660156 1.00775391 19.68996094 7.15117676 32.55820313 13.0814209C300.11009972 992.31101562 334.45125206 1008.125 367.30015343 1008.125c23.60469727 0 42.50008301-15.27134766 50.54273438-40.8140332 12.50002441-39.82565918-4.05039551-102.98469727-59.41872071-141.5119043z" fill="#FDB515" p-id="4661"></path><path d="M822.06848351 656.70958496a20.00003906 20.00003906 0 0 0-10.58141602 3.33333984l-138.04290527-225.87253417a1104.65332031 1104.65332031 0 0 0-60.38771484-138.3529834 20.65895508 20.65895508 0 1 0-36.82177735 18.9341455c93.33351563 181.35694336 101.06608887 294.57421875 101.10484864 402.81086426-0.25193848 4.34109375-1.72480957 43.06209961 20.54267578 66.62803711a55.52336426 55.52336426 0 0 0 41.43418945 17.20933594h14.3217334c21.02717285 0 43.75977539-1.60853027 61.53112793-19.24422363 19.10856445-18.75972656 27.57757324-51.16289063 27.57757324-104.78702637a20.65895508 20.65895508 0 0 0-20.67833496-20.65895508z" fill="#1A1A1A" p-id="4662"></path><path d="M553.34702843 141.63105957c-23.97291504 0-41.35666992 25.71710449-41.35666992 61.16291016s17.44189453 61.14353027 41.35666992 61.14353027S594.68431847 238.22039551 594.68431847 202.79396973s-17.44189453-61.16291016-41.33729004-61.16291016z" fill="#FFFFFF" p-id="4663"></path><path d="M534.58730187 217.96841797a36.72487793 18.75972656 90 1 0 37.51945312 0 36.72487793 18.75972656 90 1 0-37.51945312 0Z" p-id="4664"></path><path d="M429.31577843 141.63105957c-23.97291504 0-41.35666992 25.71710449-41.35666992 61.16291016s17.44189453 61.14353027 41.35666992 61.14353027S470.65306847 238.22039551 470.65306847 202.79396973s-17.44189453-61.16291016-41.33729004-61.16291016z" fill="#FFFFFF" p-id="4665"></path><path d="M410.94364953 217.2513623a35.98844238 18.37212891 90 1 0 36.74425781 0 35.98844238 18.37212891 90 1 0-36.74425781 0Z" p-id="4666"></path><path d="M495.38179894 223.0071875a20.50391602 20.50391602 0 0 0-4.05039551-0.40697754c-44.45745117 0-124.03125 41.68612793-124.03125 82.67458008 0 38.75976563 78.17844727 82.69395996 103.35291504 82.69395996 12.20932617 0 144.70958496-46.0078418 144.70958496-82.69395996 0-54.06987305-91.84126465-76.64743652-119.98085449-82.26760254z" fill="#FDB515" p-id="4667"></path></svg>